<svg xmlns="http://www.w3.org/2000/svg" xmlns:xlink="http://www.w3.org/1999/xlink" id="Layer_1" x="0" y="0" enable-background="new 0 0 480 480" version="1.1" viewBox="0 0 480 480" xml:space="preserve"><switch><g><g><rect width="480" height="480" fill="none"/><g><path fill="#FFF" d="M332.2,148.4c-8.5-43.3-46.6-75.8-92.2-75.8c-18.6,0-35.8,5.4-50.3,14.7l18.3,18.3 c9.5-5,20.5-7.9,32-7.9c38.2,0,69,30.9,69,69v6.3h18.8c20.8,0,37.6,16.8,37.6,37.6c0,14.2-8,26.5-19.6,32.9l18.2,18.2 c15.9-11.4,26.5-30,26.5-51.1C390.6,177.5,364.9,150.6,332.2,148.4z M127.1,88.5l34.5,34.4c-40,1.8-72.2,34.6-72.2,75.2 c0,41.5,33.8,75.3,75.3,75.3h147.2l25.1,25.1l15.9-15.9l-210-210L127.1,88.5z M186.4,147.9l100.4,100.4H164.7 c-27.7,0-50.2-22.5-50.2-50.2s22.5-50.2,50.2-50.2H186.4z"/><text transform="matrix(1 0 0 1 62.3989 360.3635)"><tspan x="0" y="0" fill="#FFF" font-family="'Roboto-Regular'" font-size="32">Could not load the image</tspan><tspan x="96" y="38.4" fill="#FFF" font-family="'Roboto-Regular'" font-size="32">Tap to retry</tspan></text></g></g></g></switch></svg>